{
  "accessors": [
    {
      "bufferView": 2,
      "componentType": 5126,
      "count": 642,
      "max": [
        0.1083500012755394,
        0.010889999568462372,
        0.04560000076889992
      ],
      "min": [
        -0.1083500012755394,
        -0.04554999992251396,
        -0.04552999883890152
      ],
      "type": "VEC3"
    },
    {
      "bufferView": 2,
      "byteOffset": 7704,
      "componentType": 5126,
      "count": 642,
      "max": [
        0.998978853225708,
        0.14325369894504547,
        0.9999461770057678
      ],
      "min": [
        -0.998978853225708,
        -0.9989619851112366,
        -0.9999461770057678
      ],
      "type": "VEC3"
    },
    {
      "bufferView": 1,
      "componentType": 5126,
      "count": 642,
      "max": [
        1.0,
        1.0
      ],
      "min": [
        0.0,
        0.0
      ],
      "type": "VEC2"
    },
    {
      "bufferView": 0,
      "componentType": 5125,
      "count": 3648,
      "type": "SCALAR"
    },
    {
      "bufferView": 2,
      "byteOffset": 15408,
      "componentType": 5126,
      "count": 2617,
      "max": [
        0.24910999834537506,
        0.24491000175476074,
        0.3158000111579895
      ],
      "min": [
        -0.24910999834537506,
        -0.26113998889923096,
        -0.30880001187324524
      ],
      "type": "VEC3"
    },
    {
      "bufferView": 2,
      "byteOffset": 46812,
      "componentType": 5126,
      "count": 2617,
      "max": [
        0.9991121888160706,
        0.9999075531959534,
        0.9999790787696838
      ],
      "min": [
        -0.9993544220924377,
        -0.9994707703590393,
        -0.9998722672462463
      ],
      "type": "VEC3"
    },
    {
      "bufferView": 3,
      "componentType": 5126,
      "count": 2617,
      "max": [
        1.0,
        0.9990130662918091,
        0.9606273174285889,
        1.0
      ],
      "min": [
        -0.9997007250785828,
        -0.9997496604919434,
        -0.9692459106445313,
        -1.0
      ],
      "type": "VEC4"
    },
    {
      "bufferView": 1,
      "byteOffset": 5136,
      "componentType": 5126,
      "count": 2617,
      "max": [
        1.0017800331115723,
        0.9372100234031677
      ],
      "min": [
        -0.004050000105053186,
        0.08618000149726868
      ],
      "type": "VEC2"
    },
    {
      "bufferView": 1,
      "byteOffset": 26072,
      "componentType": 5126,
      "count": 2617,
      "max": [
        1.0017800331115723,
        0.9372100234031677
      ],
      "min": [
        -0.004050000105053186,
        0.08618000149726868
      ],
      "type": "VEC2"
    },
    {
      "bufferView": 1,
      "byteOffset": 47008,
      "componentType": 5126,
      "count": 2617,
      "max": [
        1.0017800331115723,
        0.9372100234031677
      ],
      "min": [
        -0.004050000105053186,
        0.08618000149726868
      ],
      "type": "VEC2"
    },
    {
      "bufferView": 1,
      "byteOffset": 67944,
      "componentType": 5126,
      "count": 2617,
      "max": [
        1.0017800331115723,
        0.9372100234031677
      ],
      "min": [
        -0.004050000105053186,
        0.08618000149726868
      ],
      "type": "VEC2"
    },
    {
      "bufferView": 0,
      "byteOffset": 14592,
      "componentType": 5125,
      "count": 13884,
      "type": "SCALAR"
    },
    {
      "bufferView": 2,
      "byteOffset": 78216,
      "componentType": 5126,
      "count": 967,
      "max": [
        0.23500999808311462,
        0.3307400047779083,
        0.022420000284910202
      ],
      "min": [
        -0.19589999318122864,
        -0.1415800005197525,
        -0.42017999291419983
      ],
      "type": "VEC3"
    },
    {
      "bufferView": 2,
      "byteOffset": 89820,
      "componentType": 5126,
      "count": 967,
      "max": [
        0.9993172883987427,
        0.998525083065033,
        0.9983632564544678
      ],
      "min": [
        -0.9993162155151367,
        -0.9873293042182922,
        -0.36863407492637634
      ],
      "type": "VEC3"
    },
    {
      "bufferView": 3,
      "byteOffset": 41872,
      "componentType": 5126,
      "count": 967,
      "max": [
        0.9999039769172668,
        0.9993943572044373,
        0.9962009787559509,
        1.0
      ],
      "min": [
        -0.9997713565826416,
        -0.9976028800010681,
        -0.9927582144737244,
        -1.0
      ],
      "type": "VEC4"
    },
    {
      "bufferView": 1,
      "byteOffset": 88880,
      "componentType": 5126,
      "count": 967,
      "max": [
        0.9936500191688538,
        1.0405299663543701
      ],
      "min": [
        -0.0024399999529123306,
        -0.024410000070929527
      ],
      "type": "VEC2"
    },
    {
      "bufferView": 1,
      "byteOffset": 96616,
      "componentType": 5126,
      "count": 967,
      "max": [
        0.9936500191688538,
        1.0405299663543701
      ],
      "min": [
        -0.0024399999529123306,
        -0.024410000070929527
      ],
      "type": "VEC2"
    },
    {
      "bufferView": 0,
      "byteOffset": 70128,
      "componentType": 5125,
      "count": 2748,
      "type": "SCALAR"
    }
  ],
  "asset": {
    "extras": {
      "author": "RubenBuchholz644c9d600cf24bcb (https://sketchfab.com/RubenBuchholz644c9d600cf24bcb)",
      "license": "CC-BY-4.0 (http://creativecommons.org/licenses/by/4.0/)",
      "source": "https://sketchfab.com/3d-models/april-4027a613edc14aacb3751c878a08d46e",
      "title": "April"
    },
    "generator": "Sketchfab-12.65.0",
    "version": "2.0"
  },
  "bufferViews": [
    {
      "buffer": 0,
      "byteLength": 81120,
      "name": "floatBufferViews",
      "target": 34963
    },
    {
      "buffer": 0,
      "byteLength": 104352,
      "byteOffset": 81120,
      "byteStride": 8,
      "name": "floatBufferViews",
      "target": 34962
    },
    {
      "buffer": 0,
      "byteLength": 101424,
      "byteOffset": 185472,
      "byteStride": 12,
      "name": "floatBufferViews",
      "target": 34962
    },
    {
      "buffer": 0,
      "byteLength": 57344,
      "byteOffset": 286896,
      "byteStride": 16,
      "name": "floatBufferViews",
      "target": 34962
    }
  ],
  "buffers": [
    {
      "byteLength": 344240,
      "uri": "scene.bin"
    }
  ],
  "images": [
    {
      "uri": "textures/hair_baseColor.png"
    },
    {
      "uri": "textures/hair_metallicRoughness.png"
    },
    {
      "uri": "textures/hair_normal.png"
    },
    {
      "uri": "textures/Material.004_baseColor.png"
    },
    {
      "uri": "textures/Material.004_metallicRoughness.png"
    },
    {
      "uri": "textures/Material.004_normal.png"
    },
    {
      "uri": "textures/Material.002_baseColor.png"
    }
  ],
  "materials": [
    {
      "alphaMode": "BLEND",
      "doubleSided": true,
      "name": "hair",
      "normalTexture": {
        "index": 2
      },
      "pbrMetallicRoughness": {
        "baseColorFactor": [
          1.0,
          1.0,
          1.0,
          0.6446265244
        ],
        "baseColorTexture": {
          "index": 0
        },
        "metallicFactor": 0.013910061,
        "metallicRoughnessTexture": {
          "index": 1
        },
        "roughnessFactor": 0.6419588415
      }
    },
    {
      "name": "Material.004",
      "normalTexture": {
        "index": 5
      },
      "pbrMetallicRoughness": {
        "baseColorTexture": {
          "index": 3
        },
        "metallicRoughnessTexture": {
          "index": 4
        }
      }
    },
    {
      "name": "Material.002",
      "pbrMetallicRoughness": {
        "baseColorTexture": {
          "index": 6
        },
        "metallicFactor": 0.4224466463,
        "roughnessFactor": 0.1907393293
      }
    }
  ],
  "meshes": [
    {
      "name": "Sphere_0",
      "primitives": [
        {
          "attributes": {
            "NORMAL": 1,
            "POSITION": 0,
            "TEXCOORD_0": 2
          },
          "indices": 3,
          "material": 2,
          "mode": 4
        }
      ]
    },
    {
      "name": "Cube.002_0",
      "primitives": [
        {
          "attributes": {
            "NORMAL": 5,
            "POSITION": 4,
            "TANGENT": 6,
            "TEXCOORD_0": 7,
            "TEXCOORD_1": 8,
            "TEXCOORD_2": 9,
            "TEXCOORD_3": 10
          },
          "indices": 11,
          "material": 1,
          "mode": 4
        }
      ]
    },
    {
      "name": "Plane.030_0",
      "primitives": [
        {
          "attributes": {
            "NORMAL": 13,
            "POSITION": 12,
            "TANGENT": 14,
            "TEXCOORD_0": 15,
            "TEXCOORD_1": 16
          },
          "indices": 17,
          "material": 0,
          "mode": 4
        }
      ]
    }
  ],
  "nodes": [
    {
      "children": [
        1
      ],
      "matrix": [
        1.0,
        0.0,
        0.0,
        0.0,
        0.0,
        2.220446049250313e-16,
        -1.0,
        0.0,
        0.0,
        1.0,
        2.220446049250313e-16,
        0.0,
        0.0,
        0.0,
        0.0,
        1.0
      ],
      "name": "Sketchfab_model"
    },
    {
      "children": [
        2,
        4,
        6,
        8,
        10,
        12
      ],
      "name": "Root"
    },
    {
      "children": [
        3
      ],
      "matrix": [
        1.0,
        0.0,
        0.0,
        0.0,
        0.0,
        1.0,
        0.0,
        0.0,
        0.0,
        0.0,
        1.0,
        0.0,
        0.0,
        -0.11433000000000001,
        0.36703,
        1.0
      ],
      "name": "Sphere"
    },
    {
      "mesh": 0,
      "name": "Sphere_0"
    },
    {
      "children": [
        5
      ],
      "matrix": [
        1.0,
        0.0,
        0.0,
        0.0,
        0.0,
        1.0,
        0.0,
        0.0,
        0.0,
        0.0,
        1.0,
        0.0,
        0.0,
        0.020960000000000006,
        0.28141000000000005,
        1.0
      ],
      "name": "Cube.002"
    },
    {
      "mesh": 1,
      "name": "Cube.002_0"
    },
    {
      "children": [
        7
      ],
      "matrix": [
        0.44209000000000004,
        -0.6912500000000001,
        -0.57159,
        0.0,
        0.83581,
        0.08620000000000003,
        0.54221,
        0.0,
        -0.32553000000000004,
        -0.71745,
        0.6158700000000001,
        0.0,
        -0.11877000000000003,
        -0.7186700000000001,
        4.79599,
        1.0
      ],
      "name": "Lamp"
    },
    {
      "name": "Lamp"
    },
    {
      "children": [
        9
      ],
      "matrix": [
        0.017330000000000005,
        -0.7338100000000001,
        -0.6791300000000001,
        0.0,
        0.8429900000000001,
        -0.35452000000000006,
        0.40457000000000004,
        0.0,
        -0.5376500000000001,
        -0.57951,
        0.61246,
        0.0,
        -0.8381900000000001,
        0.08672000000000003,
        4.31589,
        1.0
      ],
      "name": "Lamp.001"
    },
    {
      "name": "Lamp.001"
    },
    {
      "children": [
        11
      ],
      "matrix": [
        0.21536000000000002,
        0.93983,
        0.26522,
        0.0,
        0.12405000000000001,
        -0.29572000000000004,
        0.94718,
        0.0,
        0.9686200000000001,
        -0.17109000000000002,
        -0.18028000000000002,
        0.0,
        -0.8381900000000001,
        0.08672000000000003,
        4.31589,
        1.0
      ],
      "name": "Lamp.002"
    },
    {
      "name": "Lamp.002"
    },
    {
      "children": [
        13
      ],
      "matrix": [
        1.0,
        0.0,
        0.0,
        0.0,
        0.0,
        1.0,
        0.0,
        0.0,
        0.0,
        0.0,
        1.0,
        0.0,
        -0.010640000000000002,
        -0.09180000000000002,
        0.59041,
        1.0
      ],
      "name": "Plane.030"
    },
    {
      "mesh": 2,
      "name": "Plane.030_0"
    }
  ],
  "samplers": [
    {
      "magFilter": 9729,
      "minFilter": 9987,
      "wrapS": 10497,
      "wrapT": 10497
    }
  ],
  "scene": 0,
  "scenes": [
    {
      "name": "Sketchfab_Scene",
      "nodes": [
        0
      ]
    }
  ],
  "textures": [
    {
      "sampler": 0,
      "source": 0
    },
    {
      "sampler": 0,
      "source": 1
    },
    {
      "sampler": 0,
      "source": 2
    },
    {
      "sampler": 0,
      "source": 3
    },
    {
      "sampler": 0,
      "source": 4
    },
    {
      "sampler": 0,
      "source": 5
    },
    {
      "sampler": 0,
      "source": 6
    }
  ]
}
